<svg width="16" height="16" viewBox="0 0 16 16" fill="none" xmlns="http://www.w3.org/2000/svg">
<path d="M14.6467 12.2187C14.6467 12.4587 14.5934 12.7054 14.48 12.9454C14.3667 13.1854 14.22 13.412 14.0267 13.6254C13.7 13.9854 13.34 14.2454 12.9334 14.412C12.5334 14.5787 12.1 14.6654 11.6334 14.6654C10.9534 14.6654 10.2267 14.5054 9.46004 14.1787C8.69337 13.852 7.92671 13.412 7.16671 12.8587C6.40004 12.2987 5.67337 11.6787 4.98004 10.992C4.29337 10.2987 3.67337 9.57203 3.12004 8.81203C2.57337 8.05203 2.13337 7.29203 1.81337 6.5387C1.49337 5.7787 1.33337 5.05203 1.33337 4.3587C1.33337 3.90536 1.41337 3.47203 1.57337 3.07203C1.73337 2.66536 1.98671 2.29203 2.34004 1.9587C2.76671 1.5387 3.23337 1.33203 3.72671 1.33203C3.91337 1.33203 4.10004 1.37203 4.26671 1.45203C4.44004 1.53203 4.59337 1.65203 4.71337 1.82536L6.26004 4.00536C6.38004 4.17203 6.46671 4.32536 6.52671 4.47203C6.58671 4.61203 6.62004 4.75203 6.62004 4.8787C6.62004 5.0387 6.57337 5.1987 6.48004 5.35203C6.39337 5.50536 6.26671 5.66536 6.10671 5.82536L5.60004 6.35203C5.52671 6.42536 5.49337 6.51203 5.49337 6.6187C5.49337 6.67203 5.50004 6.7187 5.51337 6.77203C5.53337 6.82536 5.55337 6.86536 5.56671 6.90536C5.68671 7.12536 5.89337 7.41203 6.18671 7.7587C6.48671 8.10536 6.80671 8.4587 7.15337 8.81203C7.51337 9.16536 7.86004 9.49203 8.21337 9.79203C8.56004 10.0854 8.84671 10.2854 9.07337 10.4054C9.10671 10.4187 9.14671 10.4387 9.19337 10.4587C9.24671 10.4787 9.30004 10.4854 9.36004 10.4854C9.47337 10.4854 9.56004 10.4454 9.63337 10.372L10.14 9.87203C10.3067 9.70536 10.4667 9.5787 10.62 9.4987C10.7734 9.40536 10.9267 9.3587 11.0934 9.3587C11.22 9.3587 11.3534 9.38536 11.5 9.44536C11.6467 9.50536 11.8 9.59203 11.9667 9.70536L14.1734 11.272C14.3467 11.392 14.4667 11.532 14.54 11.6987C14.6067 11.8654 14.6467 12.032 14.6467 12.2187Z" stroke="white" stroke-miterlimit="10"/>
</svg>
