<svg width="24" height="24" viewBox="0 0 24 24" fill="none" xmlns="http://www.w3.org/2000/svg">
<rect width="24" height="24" rx="12" fill="white" fill-opacity="0.2"/>
<path d="M16.0467 10.8809C15.92 10.8809 15.7933 10.8343 15.6933 10.7343L12 7.04094L8.30667 10.7343C8.11334 10.9276 7.79334 10.9276 7.6 10.7343C7.40667 10.5409 7.40667 10.2209 7.6 10.0276L11.6467 5.98094C11.84 5.7876 12.16 5.7876 12.3533 5.98094L16.4 10.0276C16.5933 10.2209 16.5933 10.5409 16.4 10.7343C16.3067 10.8343 16.1733 10.8809 16.0467 10.8809Z" fill="white"/>
<path d="M12 18.1692C11.7267 18.1692 11.5 17.9426 11.5 17.6692V6.44922C11.5 6.17589 11.7267 5.94922 12 5.94922C12.2733 5.94922 12.5 6.17589 12.5 6.44922V17.6692C12.5 17.9426 12.2733 18.1692 12 18.1692Z" fill="white"/>
</svg>
