<svg width="553" height="145" viewBox="0 0 553 145" fill="none" xmlns="http://www.w3.org/2000/svg">
<path d="M95.54 41.5709C108.2 43.9009 110.09 45.7909 112.42 58.4509C114.75 45.7909 116.64 43.9009 129.3 41.5709C116.64 39.2409 114.75 37.3509 112.42 24.6909C110.09 37.3509 108.2 39.2409 95.54 41.5709Z" fill="#9B8B5D"/>
<path d="M79.4502 53.821C87.4902 55.301 88.6902 56.5009 90.1702 64.5409C91.6502 56.5009 92.8502 55.301 100.89 53.821C92.8502 52.341 91.6502 51.141 90.1702 43.101C88.6902 51.141 87.4902 52.341 79.4502 53.821Z" fill="#9B8B5D"/>
<path d="M91.8702 41.731C91.6902 41.591 91.1002 41.3909 90.1602 41.4109C89.2802 41.431 88.6402 41.591 88.4502 41.731C88.4502 30.551 88.4502 25.271 88.4502 14.101L91.8602 15.1509V41.731H91.8702Z" fill="#9B8B5D"/>
<path d="M0.360352 15.201L47.5804 29.7209L91.8704 15.201L47.5804 0.960938L0.360352 15.201Z" fill="#9B8B5D"/>
<path d="M68.2505 41.571C64.8605 43.471 57.3406 47.121 47.1406 47.151C36.5406 47.181 28.7006 43.2909 25.3306 41.3409L36.8906 22.7209H56.5405L68.2505 41.571Z" fill="#9B8B5D"/>
<path d="M91.8701 84.0509L52.9801 141.621C52.2201 142.691 51.2701 143.491 50.2001 144.021V85.1809C52.2701 84.0009 53.6701 81.8009 53.6701 79.2409C53.6701 75.4109 50.5301 72.3109 46.6701 72.3709C42.9201 72.4409 39.8201 75.6909 39.9301 79.4409C39.9901 81.9109 41.3801 84.0209 43.4001 85.1809V144.021C42.3301 143.491 41.3701 142.701 40.6201 141.621L0.370117 84.0509L23.1801 46.2109C26.9001 48.3609 35.5401 52.6509 47.2401 52.6209C58.5001 52.5909 66.8101 48.5709 70.5501 46.4709L91.8701 84.0509Z" fill="#9B8B5D"/>
<path d="M174.166 65.6441V57.8561H183.075C185.317 57.8561 187.304 57.5218 189.034 56.8531C190.804 56.1451 192.299 55.1618 193.518 53.9031C194.738 52.6445 195.662 51.1695 196.291 49.4781C196.96 47.7475 197.294 45.8398 197.294 43.7551C197.294 41.5918 196.96 39.6645 196.291 37.9731C195.662 36.2425 194.738 34.7675 193.518 33.5481C192.299 32.3288 190.804 31.4045 189.034 30.7751C187.304 30.1458 185.317 29.8311 183.075 29.8311H174.166V22.0431H182.544C186.438 22.0431 189.841 22.6135 192.751 23.7541C195.662 24.8948 198.081 26.4681 200.008 28.4741C201.936 30.4408 203.371 32.7025 204.315 35.2591C205.299 37.7765 205.79 40.3921 205.79 43.1061V44.4041C205.79 47.0001 205.299 49.5568 204.315 52.0741C203.371 54.5915 201.936 56.8728 200.008 58.9181C198.081 60.9635 195.662 62.5958 192.751 63.8151C189.841 65.0345 186.438 65.6441 182.544 65.6441H174.166ZM166.968 65.6441V22.0431H175.346V65.6441H166.968ZM214.177 65.4081V33.3711H222.378V65.4081H214.177ZM209.693 39.5071V33.3711H222.378V39.5071H209.693ZM217.186 29.5361C215.574 29.5361 214.374 29.1231 213.587 28.2971C212.84 27.4318 212.466 26.3501 212.466 25.0521C212.466 23.7541 212.84 22.6921 213.587 21.8661C214.374 21.0401 215.574 20.6271 217.186 20.6271C218.799 20.6271 219.979 21.0401 220.726 21.8661C221.474 22.6921 221.847 23.7541 221.847 25.0521C221.847 26.3501 221.474 27.4318 220.726 28.2971C219.979 29.1231 218.799 29.5361 217.186 29.5361ZM244.338 78.0341C242.804 78.0341 241.231 77.9751 239.618 77.8571C238.045 77.7391 236.57 77.5818 235.193 77.3851V70.5411C236.609 70.6985 238.123 70.8361 239.736 70.9541C241.349 71.1115 242.863 71.1901 244.279 71.1901C246.914 71.1901 249.038 70.8755 250.651 70.2461C252.303 69.6168 253.503 68.6138 254.25 67.2371C255.037 65.8998 255.43 64.1888 255.43 62.1041V55.7911L257.2 51.7791C257.082 54.7291 256.472 57.2465 255.371 59.3311C254.27 61.3765 252.775 62.9498 250.887 64.0511C248.999 65.1131 246.816 65.6441 244.338 65.6441C242.135 65.6441 240.129 65.2311 238.32 64.4051C236.55 63.5791 235.016 62.4385 233.718 60.9831C232.459 59.5278 231.476 57.8168 230.768 55.8501C230.06 53.8835 229.706 51.7791 229.706 49.5371V48.2981C229.706 46.0561 230.06 43.9715 230.768 42.0441C231.515 40.0775 232.558 38.3665 233.895 36.9111C235.232 35.4558 236.825 34.3348 238.674 33.5481C240.523 32.7615 242.568 32.3681 244.81 32.3681C247.445 32.3681 249.727 32.9385 251.654 34.0791C253.621 35.2198 255.155 36.8718 256.256 39.0351C257.357 41.1985 257.967 43.8535 258.085 47.0001L256.669 47.2361V33.3711H263.159V61.6321C263.159 65.5261 262.49 68.6728 261.153 71.0721C259.816 73.4715 257.751 75.2218 254.958 76.3231C252.205 77.4638 248.665 78.0341 244.338 78.0341ZM246.698 58.6231C248.271 58.6231 249.707 58.2691 251.005 57.5611C252.303 56.8531 253.345 55.8305 254.132 54.4931C254.919 53.1558 255.312 51.5431 255.312 49.6551V47.5901C255.312 45.7808 254.899 44.2468 254.073 42.9881C253.286 41.7295 252.244 40.7855 250.946 40.1561C249.648 39.4875 248.232 39.1531 246.698 39.1531C244.967 39.1531 243.433 39.5661 242.096 40.3921C240.798 41.1788 239.775 42.2998 239.028 43.7551C238.281 45.2105 237.907 46.9411 237.907 48.9471C237.907 50.9138 238.281 52.6248 239.028 54.0801C239.775 55.5355 240.798 56.6565 242.096 57.4431C243.433 58.2298 244.967 58.6231 246.698 58.6231ZM273.638 65.4081V33.3711H281.839V65.4081H273.638ZM269.154 39.5071V33.3711H281.839V39.5071H269.154ZM276.647 29.5361C275.035 29.5361 273.835 29.1231 273.048 28.2971C272.301 27.4318 271.927 26.3501 271.927 25.0521C271.927 23.7541 272.301 22.6921 273.048 21.8661C273.835 21.0401 275.035 20.6271 276.647 20.6271C278.26 20.6271 279.44 21.0401 280.187 21.8661C280.935 22.6921 281.308 23.7541 281.308 25.0521C281.308 26.3501 280.935 27.4318 280.187 28.2971C279.44 29.1231 278.26 29.5361 276.647 29.5361ZM291.704 65.4081V22.3381H299.905V65.4081H291.704ZM287.692 28.4741V22.3381H299.905V28.4741H287.692ZM328.678 65.4081V55.9091H327.321V45.3481C327.321 43.4995 326.869 42.1228 325.964 41.2181C325.06 40.3135 323.663 39.8611 321.775 39.8611C320.792 39.8611 319.612 39.8808 318.235 39.9201C316.859 39.9595 315.462 40.0185 314.046 40.0971C312.67 40.1365 311.431 40.1955 310.329 40.2741V33.3121C311.234 33.2335 312.257 33.1548 313.397 33.0761C314.538 32.9975 315.698 32.9581 316.878 32.9581C318.098 32.9188 319.238 32.8991 320.3 32.8991C323.604 32.8991 326.338 33.3318 328.501 34.1971C330.704 35.0625 332.356 36.4195 333.457 38.2681C334.598 40.1168 335.168 42.5358 335.168 45.5251V65.4081H328.678ZM318.353 66.2341C316.033 66.2341 313.987 65.8211 312.217 64.9951C310.487 64.1691 309.13 62.9891 308.146 61.4551C307.202 59.9211 306.73 58.0725 306.73 55.9091C306.73 53.5491 307.301 51.6218 308.441 50.1271C309.621 48.6325 311.254 47.5115 313.338 46.7641C315.462 46.0168 317.94 45.6431 320.772 45.6431H328.206V50.5401H320.654C318.766 50.5401 317.311 51.0121 316.288 51.9561C315.305 52.8608 314.813 54.0408 314.813 55.4961C314.813 56.9515 315.305 58.1315 316.288 59.0361C317.311 59.9408 318.766 60.3931 320.654 60.3931C321.795 60.3931 322.837 60.1965 323.781 59.8031C324.765 59.3705 325.571 58.6625 326.2 57.6791C326.869 56.6565 327.243 55.2798 327.321 53.5491L329.327 55.8501C329.131 58.0921 328.58 59.9801 327.675 61.5141C326.81 63.0481 325.591 64.2281 324.017 65.0541C322.483 65.8408 320.595 66.2341 318.353 66.2341ZM354.524 65.4081L360.601 34.4331H370.041L377.062 65.4081H370.572L363.433 34.6101H366.855L360.542 65.4081H354.524ZM352.105 65.4081L352.046 58.6821H358.595V65.4081H352.105ZM348.801 65.4081L340.069 33.3711H348.034L356.353 65.4081H348.801ZM372.637 65.4081V58.6821H379.186L379.127 65.4081H372.637ZM375.233 65.4081L382.608 33.3711H390.042L382.313 65.4081H375.233ZM395.556 78.0341V71.0131H401.574C402.715 71.0131 403.659 70.8558 404.406 70.5411C405.193 70.2658 405.842 69.7938 406.353 69.1251C406.864 68.4958 407.258 67.6108 407.533 66.4701L416.147 33.3711H423.994L414.495 68.2401C413.866 70.6395 412.981 72.5471 411.84 73.9631C410.699 75.4185 409.224 76.4608 407.415 77.0901C405.645 77.7195 403.442 78.0341 400.807 78.0341H395.556ZM405.527 64.7001V58.2101H412.371V64.7001H405.527ZM402.754 64.7001L392.37 33.3711H400.63L410.483 64.7001H402.754ZM443.275 66.5291C440.522 66.5291 438.103 66.0571 436.018 65.1131C433.973 64.1691 432.262 62.9105 430.885 61.3371C429.548 59.7245 428.525 57.9348 427.817 55.9681C427.149 54.0015 426.814 51.9955 426.814 49.9501V48.8291C426.814 46.7051 427.149 44.6598 427.817 42.6931C428.525 40.6871 429.548 38.9171 430.885 37.3831C432.262 35.8098 433.953 34.5708 435.959 33.6661C437.965 32.7221 440.286 32.2501 442.921 32.2501C446.383 32.2501 449.274 33.0171 451.594 34.5511C453.954 36.0458 455.724 38.0321 456.904 40.5101C458.084 42.9488 458.674 45.5841 458.674 48.4161V51.3661H430.295V46.3511H453.541L451.004 48.8291C451.004 46.7838 450.709 45.0335 450.119 43.5781C449.529 42.1228 448.625 41.0018 447.405 40.2151C446.225 39.4285 444.731 39.0351 442.921 39.0351C441.112 39.0351 439.578 39.4481 438.319 40.2741C437.061 41.1001 436.097 42.2998 435.428 43.8731C434.799 45.4071 434.484 47.2558 434.484 49.4191C434.484 51.4251 434.799 53.2148 435.428 54.7881C436.058 56.3221 437.021 57.5415 438.319 58.4461C439.617 59.3115 441.269 59.7441 443.275 59.7441C445.281 59.7441 446.914 59.3508 448.172 58.5641C449.431 57.7381 450.237 56.7351 450.591 55.5551H458.143C457.671 57.7578 456.767 59.6851 455.429 61.3371C454.092 62.9891 452.381 64.2675 450.296 65.1721C448.251 66.0768 445.911 66.5291 443.275 66.5291ZM465.525 65.4081V33.3711H472.015V46.9411H471.838C471.838 42.3391 472.822 38.8581 474.788 36.4981C476.755 34.1381 479.646 32.9581 483.461 32.9581H484.641V40.0971H482.399C479.646 40.0971 477.502 40.8445 475.968 42.3391C474.474 43.7945 473.726 45.9185 473.726 48.7111V65.4081H465.525ZM485.315 65.4081V55.9681H494.519V65.4081H485.315ZM521.869 65.4081V55.9091H520.512V45.3481C520.512 43.4995 520.06 42.1228 519.155 41.2181C518.25 40.3135 516.854 39.8611 514.966 39.8611C513.983 39.8611 512.803 39.8808 511.426 39.9201C510.049 39.9595 508.653 40.0185 507.237 40.0971C505.86 40.1365 504.621 40.1955 503.52 40.2741V33.3121C504.425 33.2335 505.447 33.1548 506.588 33.0761C507.729 32.9975 508.889 32.9581 510.069 32.9581C511.288 32.9188 512.429 32.8991 513.491 32.8991C516.795 32.8991 519.529 33.3318 521.692 34.1971C523.895 35.0625 525.547 36.4195 526.648 38.2681C527.789 40.1168 528.359 42.5358 528.359 45.5251V65.4081H521.869ZM511.544 66.2341C509.223 66.2341 507.178 65.8211 505.408 64.9951C503.677 64.1691 502.32 62.9891 501.337 61.4551C500.393 59.9211 499.921 58.0725 499.921 55.9091C499.921 53.5491 500.491 51.6218 501.632 50.1271C502.812 48.6325 504.444 47.5115 506.529 46.7641C508.653 46.0168 511.131 45.6431 513.963 45.6431H521.397V50.5401H513.845C511.957 50.5401 510.502 51.0121 509.479 51.9561C508.496 52.8608 508.004 54.0408 508.004 55.4961C508.004 56.9515 508.496 58.1315 509.479 59.0361C510.502 59.9408 511.957 60.3931 513.845 60.3931C514.986 60.3931 516.028 60.1965 516.972 59.8031C517.955 59.3705 518.762 58.6625 519.391 57.6791C520.06 56.6565 520.433 55.2798 520.512 53.5491L522.518 55.8501C522.321 58.0921 521.771 59.9801 520.866 61.5141C520.001 63.0481 518.781 64.2281 517.208 65.0541C515.674 65.8408 513.786 66.2341 511.544 66.2341ZM538.677 65.4081V33.3711H546.878V65.4081H538.677ZM534.193 39.5071V33.3711H546.878V39.5071H534.193ZM541.686 29.5361C540.074 29.5361 538.874 29.1231 538.087 28.2971C537.34 27.4318 536.966 26.3501 536.966 25.0521C536.966 23.7541 537.34 22.6921 538.087 21.8661C538.874 21.0401 540.074 20.6271 541.686 20.6271C543.299 20.6271 544.479 21.0401 545.226 21.8661C545.974 22.6921 546.347 23.7541 546.347 25.0521C546.347 26.3501 545.974 27.4318 545.226 28.2971C544.479 29.1231 543.299 29.5361 541.686 29.5361Z" fill="#1A1443"/>
<path d="M165.898 118.006H162.403L170.255 96.1879H174.058L181.91 118.006H178.416L172.247 100.151H172.077L165.898 118.006ZM166.484 109.462H177.819V112.232H166.484V109.462ZM192.505 101.642V104.199H183.258V101.642H192.505ZM185.793 118.006V99.7462C185.793 98.7234 186.017 97.8747 186.464 97.2C186.912 96.5182 187.505 96.0104 188.243 95.6766C188.982 95.3356 189.784 95.1652 190.651 95.1652C191.29 95.1652 191.837 95.2185 192.292 95.325C192.746 95.4244 193.083 95.5168 193.304 95.602L192.558 98.1801C192.409 98.1375 192.217 98.0878 191.983 98.031C191.748 97.967 191.464 97.9351 191.13 97.9351C190.356 97.9351 189.802 98.1268 189.468 98.5104C189.142 98.8939 188.978 99.4479 188.978 100.172V118.006H185.793ZM203.579 101.642V104.199H194.332V101.642H203.579ZM196.867 118.006V99.7462C196.867 98.7234 197.091 97.8747 197.538 97.2C197.986 96.5182 198.579 96.0104 199.318 95.6766C200.056 95.3356 200.859 95.1652 201.725 95.1652C202.364 95.1652 202.911 95.2185 203.366 95.325C203.82 95.4244 204.158 95.5168 204.378 95.602L203.632 98.1801C203.483 98.1375 203.291 98.0878 203.057 98.031C202.822 97.967 202.538 97.9351 202.205 97.9351C201.43 97.9351 200.876 98.1268 200.543 98.5104C200.216 98.8939 200.053 99.4479 200.053 100.172V118.006H196.867ZM213.114 118.336C211.58 118.336 210.241 117.985 209.097 117.282C207.954 116.579 207.066 115.595 206.434 114.331C205.802 113.066 205.486 111.589 205.486 109.899C205.486 108.201 205.802 106.717 206.434 105.446C207.066 104.174 207.954 103.187 209.097 102.484C210.241 101.781 211.58 101.429 213.114 101.429C214.648 101.429 215.987 101.781 217.13 102.484C218.273 103.187 219.161 104.174 219.793 105.446C220.425 106.717 220.742 108.201 220.742 109.899C220.742 111.589 220.425 113.066 219.793 114.331C219.161 115.595 218.273 116.579 217.13 117.282C215.987 117.985 214.648 118.336 213.114 118.336ZM213.124 115.662C214.119 115.662 214.943 115.4 215.596 114.874C216.249 114.348 216.732 113.649 217.045 112.775C217.364 111.902 217.524 110.939 217.524 109.888C217.524 108.844 217.364 107.885 217.045 107.012C216.732 106.131 216.249 105.424 215.596 104.892C214.943 104.359 214.119 104.093 213.124 104.093C212.123 104.093 211.292 104.359 210.631 104.892C209.978 105.424 209.492 106.131 209.172 107.012C208.859 107.885 208.703 108.844 208.703 109.888C208.703 110.939 208.859 111.902 209.172 112.775C209.492 113.649 209.978 114.348 210.631 114.874C211.292 115.4 212.123 115.662 213.124 115.662ZM224.297 118.006V101.642H227.376V104.242H227.546C227.845 103.361 228.37 102.669 229.123 102.164C229.883 101.653 230.742 101.397 231.701 101.397C231.9 101.397 232.134 101.405 232.404 101.419C232.681 101.433 232.898 101.451 233.054 101.472V104.519C232.926 104.483 232.699 104.444 232.372 104.402C232.046 104.352 231.719 104.327 231.392 104.327C230.639 104.327 229.968 104.487 229.379 104.807C228.796 105.119 228.335 105.556 227.994 106.117C227.653 106.671 227.482 107.303 227.482 108.013V118.006H224.297ZM241.351 118.326C240.03 118.326 238.851 117.988 237.814 117.314C236.784 116.632 235.974 115.662 235.385 114.405C234.802 113.141 234.511 111.625 234.511 109.856C234.511 108.088 234.806 106.575 235.395 105.318C235.992 104.061 236.809 103.098 237.846 102.431C238.883 101.763 240.058 101.429 241.372 101.429C242.387 101.429 243.204 101.6 243.822 101.941C244.447 102.275 244.93 102.665 245.271 103.113C245.619 103.56 245.889 103.954 246.081 104.295H246.272V96.1879H249.458V118.006H246.347V115.46H246.081C245.889 115.808 245.612 116.206 245.25 116.653C244.895 117.101 244.405 117.491 243.78 117.825C243.155 118.159 242.345 118.326 241.351 118.326ZM242.054 115.609C242.97 115.609 243.744 115.368 244.376 114.885C245.015 114.395 245.498 113.716 245.825 112.85C246.159 111.983 246.326 110.975 246.326 109.824C246.326 108.688 246.162 107.694 245.836 106.841C245.509 105.989 245.03 105.325 244.397 104.849C243.765 104.373 242.984 104.135 242.054 104.135C241.095 104.135 240.296 104.384 239.657 104.881C239.017 105.378 238.534 106.057 238.208 106.916C237.888 107.775 237.728 108.745 237.728 109.824C237.728 110.918 237.892 111.902 238.218 112.775C238.545 113.649 239.028 114.341 239.667 114.853C240.314 115.357 241.109 115.609 242.054 115.609ZM258.766 118.368C257.729 118.368 256.792 118.177 255.954 117.793C255.116 117.402 254.452 116.838 253.962 116.099C253.479 115.361 253.237 114.455 253.237 113.383C253.237 112.459 253.415 111.699 253.77 111.103C254.125 110.506 254.604 110.034 255.208 109.686C255.812 109.338 256.486 109.075 257.232 108.897C257.978 108.72 258.738 108.585 259.512 108.493C260.492 108.379 261.288 108.287 261.898 108.216C262.509 108.137 262.953 108.013 263.23 107.843C263.507 107.672 263.645 107.395 263.645 107.012V106.937C263.645 106.007 263.383 105.286 262.857 104.775C262.339 104.263 261.564 104.008 260.535 104.008C259.462 104.008 258.617 104.245 257.999 104.721C257.388 105.19 256.966 105.712 256.731 106.287L253.738 105.606C254.093 104.611 254.611 103.809 255.293 103.198C255.982 102.58 256.774 102.133 257.669 101.856C258.564 101.571 259.505 101.429 260.492 101.429C261.145 101.429 261.838 101.508 262.569 101.664C263.308 101.813 263.997 102.09 264.636 102.495C265.283 102.9 265.812 103.478 266.224 104.231C266.636 104.977 266.841 105.946 266.841 107.14V118.006H263.731V115.769H263.603C263.397 116.181 263.088 116.586 262.676 116.983C262.264 117.381 261.735 117.711 261.089 117.974C260.442 118.237 259.668 118.368 258.766 118.368ZM259.459 115.812C260.339 115.812 261.092 115.637 261.717 115.289C262.349 114.941 262.829 114.487 263.155 113.926C263.489 113.358 263.656 112.75 263.656 112.104V109.995C263.542 110.108 263.322 110.215 262.996 110.314C262.676 110.407 262.31 110.488 261.898 110.559C261.486 110.623 261.085 110.684 260.694 110.74C260.304 110.79 259.977 110.833 259.714 110.868C259.096 110.946 258.532 111.078 258.02 111.262C257.516 111.447 257.111 111.713 256.806 112.062C256.508 112.402 256.359 112.857 256.359 113.425C256.359 114.213 256.65 114.81 257.232 115.215C257.814 115.613 258.557 115.812 259.459 115.812ZM271.34 118.006V96.1879H274.525V104.295H274.717C274.902 103.954 275.168 103.56 275.516 103.113C275.864 102.665 276.347 102.275 276.965 101.941C277.583 101.6 278.4 101.429 279.415 101.429C280.736 101.429 281.915 101.763 282.952 102.431C283.989 103.098 284.802 104.061 285.392 105.318C285.988 106.575 286.287 108.088 286.287 109.856C286.287 111.625 285.992 113.141 285.402 114.405C284.813 115.662 284.003 116.632 282.973 117.314C281.944 117.988 280.768 118.326 279.447 118.326C278.453 118.326 277.64 118.159 277.008 117.825C276.383 117.491 275.892 117.101 275.537 116.653C275.182 116.206 274.909 115.808 274.717 115.46H274.451V118.006H271.34ZM274.461 109.824C274.461 110.975 274.628 111.983 274.962 112.85C275.296 113.716 275.779 114.395 276.411 114.885C277.043 115.368 277.817 115.609 278.733 115.609C279.685 115.609 280.481 115.357 281.12 114.853C281.759 114.341 282.242 113.649 282.569 112.775C282.902 111.902 283.069 110.918 283.069 109.824C283.069 108.745 282.906 107.775 282.579 106.916C282.26 106.057 281.777 105.378 281.13 104.881C280.491 104.384 279.692 104.135 278.733 104.135C277.81 104.135 277.029 104.373 276.39 104.849C275.758 105.325 275.278 105.989 274.951 106.841C274.625 107.694 274.461 108.688 274.461 109.824ZM293.049 96.1879V118.006H289.864V96.1879H293.049ZM304.387 118.336C302.775 118.336 301.386 117.992 300.221 117.303C299.064 116.607 298.169 115.63 297.537 114.373C296.912 113.109 296.599 111.628 296.599 109.931C296.599 108.255 296.912 106.777 297.537 105.499C298.169 104.221 299.049 103.223 300.179 102.505C301.315 101.788 302.643 101.429 304.163 101.429C305.086 101.429 305.981 101.582 306.848 101.887C307.714 102.193 308.492 102.672 309.181 103.326C309.87 103.979 310.413 104.828 310.811 105.872C311.208 106.909 311.407 108.169 311.407 109.654V110.783H298.4V108.397H308.286C308.286 107.559 308.115 106.816 307.775 106.17C307.434 105.517 306.954 105.002 306.336 104.625C305.726 104.249 305.008 104.061 304.184 104.061C303.289 104.061 302.508 104.281 301.841 104.721C301.18 105.155 300.669 105.723 300.307 106.426C299.951 107.122 299.774 107.878 299.774 108.695V110.559C299.774 111.653 299.966 112.584 300.349 113.351C300.74 114.118 301.283 114.704 301.979 115.108C302.675 115.506 303.488 115.705 304.419 115.705C305.022 115.705 305.573 115.62 306.07 115.449C306.567 115.272 306.997 115.009 307.359 114.661C307.721 114.313 307.998 113.883 308.19 113.372L311.205 113.915C310.963 114.803 310.53 115.581 309.905 116.248C309.287 116.909 308.51 117.424 307.572 117.793C306.642 118.155 305.58 118.336 304.387 118.336ZM322.881 101.642H326.066V119.071C326.066 120.165 325.868 121.088 325.47 121.841C325.079 122.594 324.497 123.166 323.723 123.557C322.956 123.947 322.008 124.142 320.878 124.142C320.765 124.142 320.658 124.142 320.559 124.142C320.452 124.142 320.342 124.139 320.228 124.132V121.394C320.328 121.394 320.417 121.394 320.495 121.394C320.566 121.394 320.647 121.394 320.74 121.394C321.493 121.394 322.036 121.191 322.37 120.787C322.711 120.389 322.881 119.81 322.881 119.05V101.642ZM324.458 99.1176C323.904 99.1176 323.428 98.9329 323.03 98.5636C322.64 98.1872 322.444 97.7398 322.444 97.2213C322.444 96.6957 322.64 96.2483 323.03 95.879C323.428 95.5026 323.904 95.3143 324.458 95.3143C325.012 95.3143 325.484 95.5026 325.875 95.879C326.272 96.2483 326.471 96.6957 326.471 97.2213C326.471 97.7398 326.272 98.1872 325.875 98.5636C325.484 98.9329 325.012 99.1176 324.458 99.1176ZM340.718 111.22V101.642H343.914V118.006H340.781V115.172H340.611C340.235 116.046 339.631 116.774 338.8 117.356C337.976 117.932 336.95 118.219 335.721 118.219C334.67 118.219 333.74 117.988 332.93 117.527C332.127 117.058 331.495 116.365 331.034 115.449C330.579 114.533 330.352 113.4 330.352 112.051V101.642H333.537V111.667C333.537 112.782 333.846 113.67 334.464 114.331C335.082 114.991 335.884 115.321 336.872 115.321C337.468 115.321 338.061 115.172 338.651 114.874C339.247 114.576 339.741 114.125 340.132 113.521C340.529 112.917 340.725 112.15 340.718 111.22ZM360.456 105.637L357.569 106.149C357.448 105.78 357.256 105.428 356.993 105.094C356.738 104.76 356.39 104.487 355.949 104.274C355.509 104.061 354.958 103.954 354.298 103.954C353.396 103.954 352.643 104.157 352.039 104.562C351.436 104.959 351.134 105.474 351.134 106.106C351.134 106.653 351.336 107.093 351.741 107.427C352.146 107.761 352.799 108.035 353.701 108.248L356.301 108.844C357.807 109.192 358.929 109.728 359.667 110.453C360.406 111.177 360.775 112.118 360.775 113.276C360.775 114.256 360.491 115.13 359.923 115.897C359.362 116.657 358.577 117.253 357.569 117.687C356.567 118.12 355.406 118.336 354.085 118.336C352.253 118.336 350.758 117.946 349.6 117.164C348.442 116.376 347.732 115.258 347.469 113.809L350.548 113.34C350.74 114.142 351.134 114.75 351.731 115.162C352.327 115.566 353.105 115.769 354.064 115.769C355.108 115.769 355.942 115.552 356.567 115.119C357.192 114.679 357.505 114.142 357.505 113.51C357.505 112.999 357.313 112.569 356.929 112.221C356.553 111.873 355.974 111.611 355.193 111.433L352.423 110.826C350.896 110.478 349.767 109.924 349.035 109.164C348.311 108.404 347.949 107.441 347.949 106.277C347.949 105.311 348.218 104.466 348.758 103.741C349.298 103.017 350.044 102.452 350.995 102.047C351.947 101.635 353.037 101.429 354.266 101.429C356.034 101.429 357.427 101.813 358.442 102.58C359.458 103.34 360.129 104.359 360.456 105.637ZM371.916 101.642V104.199H362.978V101.642H371.916ZM365.375 97.722H368.56V113.201C368.56 113.819 368.653 114.285 368.837 114.597C369.022 114.902 369.26 115.112 369.551 115.226C369.849 115.332 370.172 115.385 370.52 115.385C370.776 115.385 371 115.368 371.192 115.332C371.383 115.297 371.533 115.268 371.639 115.247L372.214 117.878C372.03 117.949 371.767 118.02 371.426 118.091C371.085 118.169 370.659 118.212 370.148 118.219C369.31 118.233 368.528 118.084 367.804 117.772C367.079 117.459 366.493 116.976 366.046 116.323C365.599 115.669 365.375 114.849 365.375 113.862V97.722ZM375.44 118.006V101.642H378.625V118.006H375.44ZM377.048 99.1176C376.494 99.1176 376.019 98.9329 375.621 98.5636C375.23 98.1872 375.035 97.7398 375.035 97.2213C375.035 96.6957 375.23 96.2483 375.621 95.879C376.019 95.5026 376.494 95.3143 377.048 95.3143C377.602 95.3143 378.075 95.5026 378.465 95.879C378.863 96.2483 379.062 96.6957 379.062 97.2213C379.062 97.7398 378.863 98.1872 378.465 98.5636C378.075 98.9329 377.602 99.1176 377.048 99.1176ZM389.803 118.336C388.219 118.336 386.856 117.978 385.712 117.26C384.576 116.536 383.702 115.538 383.091 114.267C382.481 112.995 382.175 111.539 382.175 109.899C382.175 108.237 382.488 106.77 383.113 105.499C383.738 104.221 384.618 103.223 385.755 102.505C386.891 101.788 388.23 101.429 389.771 101.429C391.014 101.429 392.122 101.66 393.095 102.122C394.068 102.576 394.853 103.216 395.449 104.039C396.053 104.863 396.412 105.826 396.525 106.927H393.425C393.255 106.16 392.864 105.499 392.253 104.945C391.65 104.391 390.84 104.114 389.824 104.114C388.937 104.114 388.159 104.348 387.491 104.817C386.831 105.279 386.316 105.939 385.947 106.799C385.577 107.651 385.393 108.66 385.393 109.824C385.393 111.017 385.574 112.047 385.936 112.914C386.298 113.78 386.81 114.451 387.47 114.927C388.138 115.403 388.922 115.641 389.824 115.641C390.428 115.641 390.975 115.531 391.465 115.311C391.962 115.084 392.378 114.76 392.712 114.341C393.052 113.922 393.29 113.418 393.425 112.829H396.525C396.412 113.887 396.067 114.831 395.492 115.662C394.917 116.493 394.146 117.147 393.18 117.623C392.221 118.098 391.096 118.336 389.803 118.336ZM406.984 118.336C405.372 118.336 403.984 117.992 402.819 117.303C401.661 116.607 400.766 115.63 400.134 114.373C399.509 113.109 399.197 111.628 399.197 109.931C399.197 108.255 399.509 106.777 400.134 105.499C400.766 104.221 401.647 103.223 402.776 102.505C403.913 101.788 405.241 101.429 406.761 101.429C407.684 101.429 408.579 101.582 409.445 101.887C410.312 102.193 411.09 102.672 411.778 103.326C412.467 103.979 413.011 104.828 413.408 105.872C413.806 106.909 414.005 108.169 414.005 109.654V110.783H400.997V108.397H410.884C410.884 107.559 410.713 106.816 410.372 106.17C410.031 105.517 409.552 105.002 408.934 104.625C408.323 104.249 407.606 104.061 406.782 104.061C405.887 104.061 405.106 104.281 404.438 104.721C403.778 105.155 403.266 105.723 402.904 106.426C402.549 107.122 402.371 107.878 402.371 108.695V110.559C402.371 111.653 402.563 112.584 402.947 113.351C403.337 114.118 403.881 114.704 404.577 115.108C405.273 115.506 406.086 115.705 407.016 115.705C407.62 115.705 408.17 115.62 408.668 115.449C409.165 115.272 409.595 115.009 409.957 114.661C410.319 114.313 410.596 113.883 410.788 113.372L413.803 113.915C413.561 114.803 413.128 115.581 412.503 116.248C411.885 116.909 411.107 117.424 410.17 117.793C409.239 118.155 408.178 118.336 406.984 118.336ZM433.266 101.642V104.199H424.019V101.642H433.266ZM426.555 118.006V99.7462C426.555 98.7234 426.778 97.8747 427.226 97.2C427.673 96.5182 428.266 96.0104 429.005 95.6766C429.744 95.3356 430.546 95.1652 431.413 95.1652C432.052 95.1652 432.599 95.2185 433.053 95.325C433.508 95.4244 433.845 95.5168 434.065 95.602L433.32 98.1801C433.17 98.1375 432.979 98.0878 432.744 98.031C432.51 97.967 432.226 97.9351 431.892 97.9351C431.118 97.9351 430.564 98.1268 430.23 98.5104C429.903 98.8939 429.74 99.4479 429.74 100.172V118.006H426.555ZM442.801 118.336C441.267 118.336 439.928 117.985 438.785 117.282C437.641 116.579 436.754 115.595 436.121 114.331C435.489 113.066 435.173 111.589 435.173 109.899C435.173 108.201 435.489 106.717 436.121 105.446C436.754 104.174 437.641 103.187 438.785 102.484C439.928 101.781 441.267 101.429 442.801 101.429C444.335 101.429 445.674 101.781 446.818 102.484C447.961 103.187 448.849 104.174 449.481 105.446C450.113 106.717 450.429 108.201 450.429 109.899C450.429 111.589 450.113 113.066 449.481 114.331C448.849 115.595 447.961 116.579 446.818 117.282C445.674 117.985 444.335 118.336 442.801 118.336ZM442.812 115.662C443.806 115.662 444.63 115.4 445.283 114.874C445.937 114.348 446.42 113.649 446.732 112.775C447.052 111.902 447.212 110.939 447.212 109.888C447.212 108.844 447.052 107.885 446.732 107.012C446.42 106.131 445.937 105.424 445.283 104.892C444.63 104.359 443.806 104.093 442.812 104.093C441.81 104.093 440.979 104.359 440.319 104.892C439.666 105.424 439.179 106.131 438.859 107.012C438.547 107.885 438.391 108.844 438.391 109.888C438.391 110.939 438.547 111.902 438.859 112.775C439.179 113.649 439.666 114.348 440.319 114.874C440.979 115.4 441.81 115.662 442.812 115.662ZM453.985 118.006V101.642H457.063V104.242H457.234C457.532 103.361 458.058 102.669 458.811 102.164C459.571 101.653 460.43 101.397 461.389 101.397C461.588 101.397 461.822 101.405 462.092 101.419C462.369 101.433 462.585 101.451 462.742 101.472V104.519C462.614 104.483 462.387 104.444 462.06 104.402C461.733 104.352 461.406 104.327 461.08 104.327C460.327 104.327 459.656 104.487 459.066 104.807C458.484 105.119 458.022 105.556 457.681 106.117C457.34 106.671 457.17 107.303 457.17 108.013V118.006H453.985ZM478.2 118.368C477.163 118.368 476.225 118.177 475.387 117.793C474.549 117.402 473.885 116.838 473.395 116.099C472.912 115.361 472.671 114.455 472.671 113.383C472.671 112.459 472.848 111.699 473.203 111.103C473.558 110.506 474.038 110.034 474.642 109.686C475.245 109.338 475.92 109.075 476.666 108.897C477.411 108.72 478.171 108.585 478.946 108.493C479.926 108.379 480.721 108.287 481.332 108.216C481.943 108.137 482.387 108.013 482.664 107.843C482.941 107.672 483.079 107.395 483.079 107.012V106.937C483.079 106.007 482.816 105.286 482.291 104.775C481.772 104.263 480.998 104.008 479.968 104.008C478.896 104.008 478.051 104.245 477.433 104.721C476.822 105.19 476.399 105.712 476.165 106.287L473.171 105.606C473.527 104.611 474.045 103.809 474.727 103.198C475.416 102.58 476.208 102.133 477.102 101.856C477.997 101.571 478.938 101.429 479.926 101.429C480.579 101.429 481.272 101.508 482.003 101.664C482.742 101.813 483.431 102.09 484.07 102.495C484.716 102.9 485.245 103.478 485.657 104.231C486.069 104.977 486.275 105.946 486.275 107.14V118.006H483.164V115.769H483.036C482.83 116.181 482.522 116.586 482.11 116.983C481.698 117.381 481.169 117.711 480.522 117.974C479.876 118.237 479.102 118.368 478.2 118.368ZM478.892 115.812C479.773 115.812 480.526 115.637 481.151 115.289C481.783 114.941 482.262 114.487 482.589 113.926C482.923 113.358 483.09 112.75 483.09 112.104V109.995C482.976 110.108 482.756 110.215 482.429 110.314C482.11 110.407 481.744 110.488 481.332 110.559C480.92 110.623 480.519 110.684 480.128 110.74C479.737 110.79 479.411 110.833 479.148 110.868C478.53 110.946 477.965 111.078 477.454 111.262C476.95 111.447 476.545 111.713 476.24 112.062C475.941 112.402 475.792 112.857 475.792 113.425C475.792 114.213 476.083 114.81 476.666 115.215C477.248 115.613 477.99 115.812 478.892 115.812ZM493.703 96.1879V118.006H490.518V96.1879H493.703ZM501.174 96.1879V118.006H497.989V96.1879H501.174Z" fill="#1A1443"/>
</svg>
