<svg width="17" height="16" viewBox="0 0 17 16" fill="none" xmlns="http://www.w3.org/2000/svg">
<path d="M8.50004 11.1654C8.23337 11.1654 7.96671 11.1454 7.71337 11.0987C6.30004 10.892 5.01337 10.0787 4.20004 8.87203C3.63337 8.0187 3.33337 7.02536 3.33337 5.9987C3.33337 3.15203 5.65337 0.832031 8.50004 0.832031C11.3467 0.832031 13.6667 3.15203 13.6667 5.9987C13.6667 7.02536 13.3667 8.0187 12.8 8.87203C11.98 10.0854 10.6934 10.892 9.26671 11.1054C9.03337 11.1454 8.76671 11.1654 8.50004 11.1654ZM8.50004 1.83203C6.20004 1.83203 4.33337 3.6987 4.33337 5.9987C4.33337 6.83203 4.57337 7.63203 5.02671 8.31203C5.68671 9.28537 6.72004 9.9387 7.86671 10.1054C8.29337 10.1787 8.71337 10.1787 9.10671 10.1054C10.2734 9.9387 11.3067 9.27869 11.9667 8.30536C12.42 7.62536 12.66 6.82536 12.66 5.99202C12.6667 3.69869 10.8 1.83203 8.50004 1.83203Z" fill="white"/>
<path d="M4.81325 15.0574C4.71992 15.0574 4.63325 15.044 4.53992 15.024C4.10659 14.924 3.77325 14.5907 3.67325 14.1574L3.43992 13.1774C3.42659 13.1174 3.37992 13.0707 3.31325 13.0507L2.21325 12.7907C1.79992 12.6907 1.47325 12.384 1.35992 11.9774C1.24659 11.5707 1.35992 11.1307 1.65992 10.8307L4.25992 8.23071C4.36659 8.12405 4.51325 8.07071 4.65992 8.08404C4.80659 8.09738 4.93992 8.17737 5.02659 8.30404C5.68659 9.27737 6.71992 9.93738 7.87325 10.104C8.29992 10.1774 8.71992 10.1774 9.11325 10.104C10.2799 9.93738 11.3133 9.27737 11.9733 8.30404C12.0533 8.17737 12.1933 8.09738 12.3399 8.08404C12.4866 8.07071 12.6333 8.12405 12.7399 8.23071L15.3399 10.8307C15.6399 11.1307 15.7533 11.5707 15.6399 11.9774C15.5266 12.384 15.1933 12.6974 14.7866 12.7907L13.6866 13.0507C13.6266 13.064 13.5799 13.1107 13.5599 13.1774L13.3266 14.1574C13.2266 14.5907 12.8933 14.924 12.4599 15.024C12.0266 15.1307 11.5799 14.9774 11.2999 14.6374L8.49992 11.4174L5.69992 14.644C5.47325 14.9107 5.15325 15.0574 4.81325 15.0574ZM4.55992 9.35071L2.36659 11.544C2.30659 11.604 2.31325 11.6707 2.32659 11.7107C2.33325 11.744 2.36659 11.8107 2.44659 11.824L3.54659 12.084C3.97992 12.184 4.31325 12.5174 4.41325 12.9507L4.64659 13.9307C4.66659 14.0174 4.73325 14.044 4.77325 14.0574C4.81325 14.064 4.87992 14.0707 4.93992 14.004L7.49325 11.064C6.35992 10.844 5.31992 10.2374 4.55992 9.35071ZM9.50659 11.0574L12.0599 13.9907C12.1199 14.064 12.1933 14.064 12.2333 14.0507C12.2733 14.044 12.3333 14.0107 12.3599 13.9241L12.5933 12.9441C12.6933 12.5107 13.0266 12.1774 13.4599 12.0774L14.5599 11.8174C14.6399 11.7974 14.6733 11.7374 14.6799 11.704C14.6933 11.6707 14.6999 11.5974 14.6399 11.5374L12.4466 9.34403C11.6799 10.2307 10.6466 10.8374 9.50659 11.0574Z" fill="white"/>
<path d="M9.76005 8.59351C9.58672 8.59351 9.38005 8.54683 9.13339 8.40017L8.50005 8.02016L7.86672 8.39349C7.28672 8.74016 6.90672 8.54017 6.76672 8.44017C6.62672 8.34017 6.32672 8.04017 6.48005 7.38017L6.64005 6.6935L6.10672 6.20015C5.81339 5.90682 5.70672 5.5535 5.80672 5.2335C5.90672 4.9135 6.20005 4.68682 6.61339 4.62016L7.32672 4.50016L7.66672 3.7535C7.86005 3.3735 8.16005 3.16016 8.50005 3.16016C8.84005 3.16016 9.14672 3.38017 9.33339 3.76017L9.72672 4.54683L10.3867 4.62683C10.7934 4.6935 11.0867 4.92015 11.1934 5.24015C11.2934 5.56015 11.1867 5.91349 10.8934 6.20683L10.3401 6.76017L10.5134 7.38017C10.6667 8.04017 10.3667 8.34017 10.2267 8.44017C10.1534 8.50017 9.99339 8.59351 9.76005 8.59351ZM6.90672 5.59351L7.36672 6.05349C7.58005 6.26682 7.68672 6.62683 7.62005 6.92017L7.49339 7.45349L8.02672 7.14016C8.31339 6.97349 8.70005 6.97349 8.98005 7.14016L9.51339 7.45349L9.39339 6.92017C9.32672 6.62017 9.42672 6.26682 9.64005 6.05349L10.1001 5.59351L9.52005 5.49349C9.24005 5.44682 8.96005 5.24017 8.83339 4.98684L8.50005 4.3335L8.16672 5.00016C8.04672 5.24683 7.76672 5.46017 7.48672 5.50684L6.90672 5.59351Z" fill="white"/>
</svg>
