<svg width="59" height="59" viewBox="0 0 59 59" fill="none" xmlns="http://www.w3.org/2000/svg">
<path fill-rule="evenodd" clip-rule="evenodd" d="M42 -10.5858C42 -10.8146 41.8146 -11 41.5858 -11H28.4142C28.1854 -11 28 -10.8146 28 -10.5858V6.10052C28 6.46954 27.5538 6.65434 27.2929 6.39341L15.4939 -5.4056C15.3322 -5.56735 15.0699 -5.56735 14.9081 -5.4056L5.5944 3.90811C5.43265 4.06986 5.43265 4.33212 5.5944 4.49387L17.3934 16.2929C17.6544 16.5538 17.4696 17 17.1006 17H0.414202C0.185445 17 0 17.1854 0 17.4142V30.5858C0 30.8146 0.185444 31 0.414201 31H17.1005C17.4695 31 17.6543 31.4462 17.3934 31.7071L5.5944 43.5059C5.43265 43.6677 5.43265 43.9299 5.5944 44.0917L14.9081 53.4057C15.0699 53.5674 15.3322 53.5674 15.4939 53.4057L27.2929 41.6065C27.5538 41.3456 28 41.5304 28 41.8994V58.5858C28 58.8146 28.1854 59 28.4142 59H41.5858C41.8146 59 42 58.8146 42 58.5858V41.8994C42 41.5304 42.4462 41.3456 42.7071 41.6065L54.5063 53.4057C54.668 53.5674 54.9303 53.5674 55.092 53.4057L64.4057 44.092C64.5674 43.9303 64.5674 43.668 64.4057 43.5063L52.6065 31.7071C52.3456 31.4462 52.5304 31 52.8994 31H69.5858C69.8146 31 70 30.8146 70 30.5858V17.4142C70 17.1854 69.8146 17 69.5858 17H52.8994C52.5304 17 52.3456 16.5538 52.6065 16.2929L64.4057 4.49387C64.5674 4.33212 64.5674 4.06986 64.4057 3.9081L55.092 -5.40563C54.9303 -5.56739 54.668 -5.56739 54.5063 -5.40563L42.7071 6.39342C42.4462 6.65435 42 6.46955 42 6.10053V-10.5858Z" fill="url(#paint0_linear_1761_26991)" fill-opacity="0.5"/>
<path d="M64.2289 4.08488L64.4057 3.9081L64.2289 4.08488C64.293 4.14901 64.293 4.25297 64.2289 4.31709L52.4297 16.1161C52.0113 16.5346 52.3076 17.25 52.8994 17.25H69.5858C69.6765 17.25 69.75 17.3235 69.75 17.4142V30.5858C69.75 30.6765 69.6765 30.75 69.5858 30.75H52.8994C52.3076 30.75 52.0113 31.4654 52.4297 31.8839L64.2289 43.683C64.293 43.7472 64.293 43.8511 64.2289 43.9153L54.9153 53.2289C54.8511 53.293 54.7472 53.293 54.683 53.2289L42.8839 41.4297C42.4654 41.0113 41.75 41.3076 41.75 41.8994V58.5858C41.75 58.6765 41.6765 58.75 41.5858 58.75H28.4142C28.3235 58.75 28.25 58.6765 28.25 58.5858V41.8994C28.25 41.3076 27.5346 41.0113 27.1161 41.4297L15.3171 53.2289C15.253 53.293 15.149 53.293 15.0849 53.2289L5.77118 43.9149L5.5944 44.0917L5.77118 43.9149C5.70706 43.8508 5.70705 43.7468 5.77118 43.6827L17.5702 31.8839C17.9886 31.4654 17.6923 30.75 17.1005 30.75H0.414201C0.323515 30.75 0.25 30.6765 0.25 30.5858V17.4142C0.25 17.3235 0.323515 17.25 0.414202 17.25H17.1006C17.6923 17.25 17.9886 16.5346 17.5702 16.1161L5.77118 4.3171C5.70706 4.25297 5.70706 4.14901 5.77118 4.08488L15.0849 -5.22882C15.149 -5.29294 15.253 -5.29294 15.3171 -5.22882L27.1161 6.57018C27.5346 6.98861 28.25 6.69226 28.25 6.10052V-10.5858C28.25 -10.6765 28.3235 -10.75 28.4142 -10.75H41.5858C41.6765 -10.75 41.75 -10.6765 41.75 -10.5858V6.10053C41.75 6.69227 42.4654 6.98862 42.8839 6.5702L54.683 -5.22885C54.7472 -5.29298 54.8511 -5.29298 54.9153 -5.22885L64.2289 4.08488Z" stroke="#B0B0B0" stroke-opacity="0.1" stroke-width="0.5"/>
<defs>
<linearGradient id="paint0_linear_1761_26991" x1="35" y1="-11" x2="35" y2="59" gradientUnits="userSpaceOnUse">
<stop stop-color="#9B8B5D"/>
<stop offset="1" stop-color="#353020"/>
</linearGradient>
</defs>
</svg>
